<svg xmlns="http://www.w3.org/2000/svg" width="157.293" height="111.192" viewBox="0 0 157.293 111.192">
  <g id="Arrow" transform="translate(-1879.72 3543.659) rotate(-90)">
    <path id="Arrow-2" data-name="Arrow" d="M3069.449,769.8v25h25" transform="translate(756.445 3578.396) rotate(-45)" fill="none" stroke="#f66" stroke-width="7"/>
    <path id="Down" d="M16.254,117.95a55.617,55.617,0,0,1,0-78.583L55.6.023V0L94.941,39.344a55.638,55.638,0,0,1,0,78.594L55.6,157.281v.012ZM55.6,28.071A50.237,50.237,0,0,0,19.823,42.889a52.652,52.652,0,0,0-4.915,5.689c-.5.663-.978,1.345-1.432,2.032-.233.338-.455.687-.676,1.036-.133.21-.267.419-.4.635s-.279.448-.407.675c-.216.361-.426.722-.624,1.083s-.4.728-.594,1.1c-.238.46-.472.92-.7,1.385-.169.35-.332.7-.495,1.049-.326.7-.623,1.409-.914,2.125-.14.355-.285.716-.418,1.077-.094.233-.175.472-.263.7-.175.466-.331.931-.483,1.4-.005,0-.005.006-.005.018a51.268,51.268,0,0,0-1.91,7.977c-.076.5-.146.99-.2,1.49a.154.154,0,0,1-.006.053c-.076.658-.146,1.321-.2,1.985s-.1,1.321-.128,1.985c-.023.378-.03.757-.041,1.135-.005.186-.011.373-.005.565-.005.379-.005.762,0,1.141-.005.193,0,.379.005.565.012.378.023.757.041,1.135.029.658.069,1.322.128,1.985s.116,1.327.2,1.985a.153.153,0,0,1,.006.053c.058.5.128,1,.2,1.49A51.887,51.887,0,0,0,7.5,94.42a.024.024,0,0,0,.005.018c.152.472.315.937.483,1.4.088.233.175.472.263.7.133.361.279.722.418,1.077.292.715.594,1.426.914,2.125.157.349.326.7.495,1.048.221.466.46.926.7,1.386.193.361.391.728.594,1.1s.408.722.624,1.083c.133.227.267.448.407.675s.263.426.4.635c.221.35.443.7.676,1.037.454.687.931,1.368,1.432,2.032a51.384,51.384,0,0,0,4.915,5.689A50.263,50.263,0,0,0,55.6,129.245v-.012a50.237,50.237,0,0,0,35.774-14.819,52.65,52.65,0,0,0,4.915-5.689c.5-.664.978-1.345,1.432-2.032.233-.337.455-.687.676-1.036.133-.21.267-.419.4-.635s.279-.448.407-.675c.216-.361.426-.722.624-1.083s.4-.728.594-1.1c.239-.46.472-.92.7-1.386.169-.349.332-.7.495-1.048.32-.7.617-1.409.908-2.125.139-.355.285-.716.419-1.077.093-.233.175-.472.262-.7.175-.466.332-.931.483-1.4.006,0,.006-.006.006-.018a51.369,51.369,0,0,0,1.91-7.977c.076-.5.145-.99.2-1.49a.178.178,0,0,1,.005-.053c.076-.658.146-1.321.2-1.985s.1-1.321.129-1.985c.023-.378.029-.757.041-1.135.006-.186.012-.373.006-.565.005-.378.005-.762,0-1.141.005-.192,0-.379-.006-.565-.012-.378-.023-.757-.041-1.135-.03-.658-.07-1.322-.129-1.985s-.116-1.327-.2-1.985a.178.178,0,0,1-.005-.053c-.058-.5-.128-1-.2-1.49a52.1,52.1,0,0,0-1.91-7.977.021.021,0,0,0-.006-.018c-.151-.472-.314-.937-.483-1.4-.087-.233-.175-.472-.262-.7-.134-.361-.28-.722-.419-1.076-.285-.716-.588-1.427-.908-2.126-.158-.349-.326-.7-.495-1.048-.221-.466-.46-.926-.7-1.386-.193-.361-.391-.728-.594-1.1s-.408-.722-.624-1.083c-.133-.227-.267-.448-.407-.675s-.263-.426-.4-.635c-.221-.35-.443-.7-.676-1.037-.454-.688-.931-1.368-1.432-2.032a51.385,51.385,0,0,0-4.915-5.689A50.263,50.263,0,0,0,55.6,28.059Z" transform="translate(3432.467 1879.72)" fill="#0e0a23"/>
  </g>
</svg>
