<svg id="behance" xmlns="http://www.w3.org/2000/svg" width="30.611" height="19.134" viewBox="0 0 30.611 19.134">
  <g id="Group_4" data-name="Group 4" transform="translate(0 0)">
    <g id="Group_3" data-name="Group 3">
      <path id="Path_2" data-name="Path 2" d="M12.594,104.628a4.591,4.591,0,0,0,1.445-1.06,4.118,4.118,0,0,0,.874-2.75,4.705,4.705,0,0,0-.867-2.849q-1.447-1.94-4.9-1.99H0V114.64H8.524a13.33,13.33,0,0,0,2.673-.251,5.257,5.257,0,0,0,2.137-.938,5.175,5.175,0,0,0,1.339-1.468,5.392,5.392,0,0,0,.844-2.975,4.9,4.9,0,0,0-.737-2.734A4.252,4.252,0,0,0,12.594,104.628ZM3.771,99.22H7.889a7.259,7.259,0,0,1,2.237.291,1.674,1.674,0,0,1,1.016,1.726,1.757,1.757,0,0,1-.769,1.638,3.859,3.859,0,0,1-2,.463h-4.6Zm6.511,11.853a4.51,4.51,0,0,1-1.917.329H3.771v-4.977H8.428a4.86,4.86,0,0,1,1.894.314,2,2,0,0,1,1.2,2A2.346,2.346,0,0,1,10.282,111.074Z" transform="translate(0 -95.979)"/>
      <rect id="Rectangle_1" data-name="Rectangle 1" width="8.107" height="2.323" transform="translate(19.562 0.871)"/>
      <path id="Path_3" data-name="Path 3" d="M293.623,176.72a6.657,6.657,0,0,0-1.117-2.853,5.633,5.633,0,0,0-2.415-2.042,7.994,7.994,0,0,0-3.291-.647,6.811,6.811,0,0,0-5,1.913,7.423,7.423,0,0,0-1.927,5.5q0,3.826,2.137,5.524a7.678,7.678,0,0,0,4.927,1.7,6.857,6.857,0,0,0,5.264-2.011,4.528,4.528,0,0,0,1.355-2.5H289.82a3.011,3.011,0,0,1-.754.949,3.126,3.126,0,0,1-2.028.631,3.75,3.75,0,0,1-2.019-.52,3.3,3.3,0,0,1-1.466-2.91h10.193A17.575,17.575,0,0,0,293.623,176.72Zm-9.978.358a3.74,3.74,0,0,1,.976-2.135,2.941,2.941,0,0,1,2.183-.79,3.248,3.248,0,0,1,2.172.742,3.018,3.018,0,0,1,.974,2.183Z" transform="translate(-263.138 -166.682)"/>
    </g>
  </g>
</svg>
