<svg xmlns="http://www.w3.org/2000/svg" width="30.64" height="30.64" viewBox="0 0 30.64 30.64">
  <g id="dribble" transform="translate(-3739.359 -279.336)">
    <path id="dribble-2" data-name="dribble" d="M15.32,0A15.32,15.32,0,1,0,30.64,15.32,15.353,15.353,0,0,0,15.32,0ZM25.711,6.673a13.461,13.461,0,0,1,3.13,8.431A19.193,19.193,0,0,0,21.07,15q-1.058.193-2.112.488-.35-.952-.744-1.888-.4-.954-.849-1.878C20.6,10.489,24.1,8.652,25.711,6.673ZM15.32,1.8a13.473,13.473,0,0,1,9.138,3.563c-.94,1.281-3.617,3.147-7.913,4.755A39.019,39.019,0,0,0,11.17,2.448,13.465,13.465,0,0,1,15.32,1.8ZM9.392,3.166a37.363,37.363,0,0,1,5.443,7.543A32.159,32.159,0,0,1,2.121,12.364,13.575,13.575,0,0,1,9.392,3.166ZM1.8,15.32c0-.4.019-.791.052-1.179a24.415,24.415,0,0,0,2.563.13,36.608,36.608,0,0,0,11.263-1.947,39.483,39.483,0,0,1,1.582,3.709,25.1,25.1,0,0,0-4.335,2.043c-3.364,2-5.826,4.58-6.847,7.1A13.49,13.49,0,0,1,1.8,15.32ZM15.32,28.845a13.448,13.448,0,0,1-7.771-2.462c.682-2.305,2.99-4.8,6.29-6.764a23.161,23.161,0,0,1,4-1.877,42.062,42.062,0,0,1,1.9,10.361A13.463,13.463,0,0,1,15.32,28.845Zm6.168-1.49A43.45,43.45,0,0,0,19.546,17.2a17.976,17.976,0,0,1,9.2-.273A13.557,13.557,0,0,1,21.488,27.355Z" transform="translate(3739.359 279.336)"/>
  </g>
</svg>
