<svg xmlns="http://www.w3.org/2000/svg" width="1150.738" height="442" viewBox="0 0 1150.738 442">
  <g id="hello" transform="matrix(0.966, -0.259, 0.259, 0.966, 927.316, 253.486)">
    <path id="Path_8" data-name="Path 8" d="M174.981,96.38c1.6,0-11.474-1.249-21.721,9L137.432,123.7a5.7,5.7,0,0,1-9.731-4.031V104.518l18.673-69.689A12.825,12.825,0,0,0,121.6,28.191L102.051,96.38V20.856a12.825,12.825,0,1,0-25.65,0V94.17L59.6,31.452A12.825,12.825,0,0,0,34.821,38.09l17.235,64.321L29.277,62.958a11.4,11.4,0,0,0-19.745,11.4l16,27.7A71.284,71.284,0,0,1,35.078,137.7,47.025,47.025,0,0,0,82.1,184.729H92.2A51.3,51.3,0,0,0,128.477,169.7l53.49-55.984A10.082,10.082,0,0,0,174.981,96.38Z" transform="translate(-5.151 -5.15)" fill="#f66"/>
    <g id="Group_6" data-name="Group 6" transform="translate(0.001 0.031)">
      <path id="Path_9" data-name="Path 9" d="M97.687,437.683c-1.778,0-2.417-1.289-3.175-2.582a2.85,2.85,0,1,1,4.919-2.88c.253.433.461.775.654,1.077A2.854,2.854,0,0,1,97.687,437.683Z" transform="translate(-60.591 -277.347)" fill="#fff"/>
      <path id="Path_10" data-name="Path 10" d="M87.05,182.429H76.95a49.612,49.612,0,0,1-34.772-14.124,2.85,2.85,0,1,1,3.975-4.086,43.942,43.942,0,0,0,30.8,12.509h10.1a48.133,48.133,0,0,0,34.236-14.166l53.107-55.956c5.019-5.327,1.087-12.527-4.919-12.527a27.682,27.682,0,0,0-19.622,8.078l-15.4,18.232c-4.6,5.467-14.756,2.279-14.756-5.871V99.367c0-.584-1.236,4.238,18.771-70.426a9.975,9.975,0,1,0-19.284-5.114L99.64,92.016a2.852,2.852,0,0,1-5.59-.785V15.707a9.975,9.975,0,1,0-19.95,0V89.022a2.852,2.852,0,0,1-5.6.737l-16.8-62.721a9.978,9.978,0,0,0-19.616,2.572c0,1.867-1.318-3.612,17.58,66.913a2.852,2.852,0,0,1-5.221,2.162L21.658,59.232C17.35,51.776,5.7,54.718,5.7,63.522a8.533,8.533,0,0,0,1.146,4.261l16,27.706a74.248,74.248,0,0,1,9.933,37.067,44.262,44.262,0,0,0,1.8,12.528,2.85,2.85,0,0,1-5.468,1.612,49.976,49.976,0,0,1-2.033-14.14,68.539,68.539,0,0,0-9.169-34.218l-16-27.705A14.25,14.25,0,0,1,26.594,56.382L38.549,77.089,26.917,33.678A15.676,15.676,0,0,1,57.2,25.562L68.4,67.371V15.706a15.675,15.675,0,1,1,31.35,0v55.24L113.7,22.278a15.675,15.675,0,0,1,30.276,8.137L125.4,99.742v14.776a2.85,2.85,0,0,0,4.79,2.089c10.726-12.7,15.415-18.263,15.549-18.4a33.348,33.348,0,0,1,23.736-9.83,12.932,12.932,0,0,1,9.029,22.176c-54.908,57.852-53.113,55.963-53.163,56.013A53.8,53.8,0,0,1,87.05,182.429Z" transform="translate(-0.001 -0.031)" fill="#fff"/>
      <path id="Path_11" data-name="Path 11" d="M210.852,376.163a2.85,2.85,0,0,1-2.85-2.85,45.711,45.711,0,0,1,39.523-45.2,2.85,2.85,0,0,1,.753,5.65A39.994,39.994,0,0,0,213.7,373.313a2.85,2.85,0,0,1-2.85,2.85Z" transform="translate(-133.902 -211.221)" fill="#fff"/>
    </g>
    <text id="Hey_Tell_us_everything" data-name="Hey! Tell us 
everything" transform="matrix(0.966, 0.259, -0.259, 0.966, -871.523, -330.308)" fill="#f66" font-size="160" font-family="Mont-Bold, Mont" font-weight="700"><tspan x="0" y="0">Hey! Tell us </tspan><tspan x="0" y="221">everything</tspan></text>
  </g>
</svg>
