<svg xmlns="http://www.w3.org/2000/svg" width="30.505" height="30.511" viewBox="0 0 30.505 30.511">
  <g id="instagram" transform="translate(0)">
    <path id="Path_4" data-name="Path 4" d="M30.876,8.97a11.149,11.149,0,0,0-.709-3.7A7.816,7.816,0,0,0,25.7.8,11.177,11.177,0,0,0,22,.1C20.368.018,19.85,0,15.707,0S11.046.018,9.419.089A11.152,11.152,0,0,0,5.718.8,7.444,7.444,0,0,0,3.012,2.563a7.512,7.512,0,0,0-1.758,2.7,11.179,11.179,0,0,0-.709,3.7c-.078,1.633-.1,2.152-.1,6.294s.018,4.661.089,6.288a11.148,11.148,0,0,0,.709,3.7,7.815,7.815,0,0,0,4.464,4.464,11.179,11.179,0,0,0,3.7.709c1.627.072,2.146.089,6.288.089s4.661-.018,6.288-.089a11.146,11.146,0,0,0,3.7-.709,7.8,7.8,0,0,0,4.464-4.464,11.186,11.186,0,0,0,.709-3.7c.071-1.627.089-2.146.089-6.288s-.006-4.661-.078-6.288ZM28.129,21.428a8.363,8.363,0,0,1-.525,2.831,5.061,5.061,0,0,1-2.9,2.9,8.392,8.392,0,0,1-2.831.524c-1.609.072-2.092.089-6.163.089s-4.56-.018-6.163-.089a8.358,8.358,0,0,1-2.831-.524,4.7,4.7,0,0,1-1.752-1.139,4.744,4.744,0,0,1-1.139-1.752A8.394,8.394,0,0,1,3.3,21.434c-.072-1.609-.089-2.092-.089-6.163s.018-4.56.089-6.163a8.359,8.359,0,0,1,.524-2.831A4.638,4.638,0,0,1,4.973,4.524,4.736,4.736,0,0,1,6.725,3.386a8.4,8.4,0,0,1,2.831-.525c1.609-.071,2.092-.089,6.163-.089s4.56.018,6.163.089a8.363,8.363,0,0,1,2.831.525,4.692,4.692,0,0,1,1.752,1.138A4.743,4.743,0,0,1,27.6,6.276a8.4,8.4,0,0,1,.525,2.831c.071,1.609.089,2.092.089,6.163s-.018,4.548-.089,6.157Zm0,0" transform="translate(-0.448 0)"/>
    <path id="Path_5" data-name="Path 5" d="M132.787,124.5a7.838,7.838,0,1,0,7.838,7.838A7.84,7.84,0,0,0,132.787,124.5Zm0,12.922a5.084,5.084,0,1,1,5.084-5.084A5.085,5.085,0,0,1,132.787,137.422Zm0,0" transform="translate(-117.528 -117.079)"/>
    <path id="Path_6" data-name="Path 6" d="M366.11,90.432a1.83,1.83,0,1,1-1.83-1.83A1.83,1.83,0,0,1,366.11,90.432Zm0,0" transform="translate(-340.873 -83.321)"/>
  </g>
</svg>
