<svg xmlns="http://www.w3.org/2000/svg" width="147.943" height="127.708" viewBox="0 0 147.943 127.708">
  <g id="Logo" transform="translate(-364.416 -295.209)">
    <path id="Bottom_Retina" d="M486.5,432.92a47.275,47.275,0,0,1-13.938,33.648,48.3,48.3,0,0,1-5.351,4.622c-.624.471-1.265.92-1.911,1.347-.318.219-.646.427-.975.635-.2.126-.394.252-.6.372s-.422.257-.635.383c-.34.2-.679.394-1.019.586s-.69.378-1.03.559c-.433.225-.865.449-1.3.657-.329.159-.657.318-.986.465-.657.3-1.325.586-2,.854-.334.131-.674.268-1.013.394l-.663.247c-.438.159-.876.312-1.32.455a.02.02,0,0,1-.016.005,48.858,48.858,0,0,1-7.5,1.8c-.466.071-.931.137-1.4.192a.155.155,0,0,0-.049.005c-.619.077-1.243.142-1.867.186s-1.249.093-1.867.121c-.356.016-.712.027-1.068.038-.175.005-.351.011-.531.005-.356.005-.717.005-1.073,0-.181.005-.356,0-.531-.005-.356-.011-.712-.016-1.068-.038-.624-.027-1.249-.066-1.867-.121s-1.249-.115-1.867-.186a.155.155,0,0,0-.049-.005c-.471-.055-.936-.121-1.4-.192a48.242,48.242,0,0,1-7.5-1.8c-.011,0-.016,0-.016-.005-.444-.142-.882-.29-1.32-.455-.219-.082-.444-.159-.663-.247-.34-.126-.679-.263-1.013-.394-.674-.274-1.336-.553-2-.854-.329-.153-.657-.307-.986-.465-.438-.214-.871-.433-1.3-.657-.345-.186-.69-.367-1.03-.559s-.679-.383-1.019-.586c-.214-.12-.422-.252-.635-.383s-.4-.247-.6-.372c-.329-.208-.657-.416-.975-.635-.646-.427-1.287-.876-1.911-1.347a49.5,49.5,0,0,1-5.351-4.622A47.253,47.253,0,0,1,391.34,432.92H364.96l37,37.005a52.331,52.331,0,0,0,73.922,0l37.005-37.005H486.5Z" transform="translate(-0.534 -62.293)" fill="#433c70"/>
    <path id="Uper_Retina" d="M401.945,352.723l-37,37.005h26.38a47.275,47.275,0,0,1,13.938-33.648,48.277,48.277,0,0,1,5.351-4.622c.624-.471,1.265-.92,1.911-1.347.318-.219.646-.427.975-.635.2-.126.394-.252.6-.372s.422-.257.635-.383c.34-.2.679-.394,1.019-.586s.69-.378,1.03-.559c.433-.225.865-.449,1.3-.657.329-.159.657-.318.986-.465.657-.3,1.325-.586,2-.86.334-.131.674-.268,1.013-.394l.663-.246c.438-.159.876-.312,1.32-.455a.02.02,0,0,1,.016-.005,48.861,48.861,0,0,1,7.5-1.8c.466-.071.931-.137,1.4-.192a.151.151,0,0,0,.049-.005c.619-.077,1.243-.142,1.868-.186s1.249-.093,1.867-.121c.356-.016.712-.027,1.068-.038.175-.005.35-.011.531-.005.356-.005.717-.005,1.073,0,.181-.005.356,0,.531.005.356.011.712.016,1.068.038.624.027,1.249.066,1.867.121s1.249.115,1.867.186a.151.151,0,0,0,.049.005c.471.055.937.121,1.4.192a48.224,48.224,0,0,1,7.5,1.8c.011,0,.016,0,.016.005.444.142.882.29,1.32.455.219.082.444.159.663.246.34.126.679.263,1.013.394.674.274,1.336.553,2,.86.329.153.657.307.986.465.438.214.871.433,1.3.657.345.186.69.367,1.029.559s.679.383,1.019.586c.214.121.422.252.635.383s.4.246.6.372c.329.208.657.416.975.635.646.427,1.287.876,1.911,1.347a49.473,49.473,0,0,1,5.351,4.622,47.252,47.252,0,0,1,13.938,33.648h26.38l-37-37.005A52.311,52.311,0,0,0,401.945,352.723Z" transform="translate(-0.524 -19.101)" fill="#5252dd"/>
    <g id="Orange_Iris" data-name="Orange Iris">
      <path id="Iris_L" d="M445.854,378.774a35.312,35.312,0,0,0,0,49.946L495.8,378.774A35.311,35.311,0,0,0,445.854,378.774Z" transform="translate(-32.445 -33.12)" fill="#f66"/>
      <path id="iris_R" d="M504.346,437.266a35.312,35.312,0,0,0,0-49.946L454.4,437.266A35.311,35.311,0,0,0,504.346,437.266Z" transform="translate(-40.991 -41.666)" fill="#f66"/>
    </g>
    <g id="Pupil" transform="translate(0)">
      <circle id="Pupil-2" data-name="Pupil" cx="17.662" cy="17.662" r="17.662" transform="translate(420.72 352.965)" fill="#433c70"/>
      <circle id="Small_Shine" cx="4.452" cy="4.452" r="4.452" transform="translate(422.155 377.949)" fill="#fff"/>
      <circle id="Big_Shine" cx="6.802" cy="6.802" r="6.802" transform="translate(443.354 352.051)" fill="#fff"/>
    </g>
    <path id="Eyebrow_3" d="M512.867,335.961a93.672,93.672,0,0,1-40.97,8.007c-6.123-.471-11.774-.942-17.9-2.826-8.007-2.355-15.542-6.123-23.544-8.949-21.66-7.065-45.209-5.181-65.456,3.768v9.42a87.087,87.087,0,0,1,48.977-7.536c10.833,1.413,20.718,6.123,30.608,10.362a110.973,110.973,0,0,0,21.66,4.71,101.917,101.917,0,0,0,16.955,0,91.727,91.727,0,0,0,29.666-7.536v-9.42Z" transform="translate(-0.552 -14.781)" fill="#f5dfbb"/>
    <path id="Eyebrow_2" d="M425.615,321.507c10.833,1.413,20.718,6.123,30.608,10.362a110.966,110.966,0,0,0,21.66,4.71,101.911,101.911,0,0,0,16.955,0,91.727,91.727,0,0,0,29.666-7.536v-9.42a93.673,93.673,0,0,1-40.97,8.007c-6.123-.471-11.775-.942-17.9-2.826-8.007-2.355-15.542-6.123-23.544-8.949a91.012,91.012,0,0,0-51.364-1.172v9.151A86.514,86.514,0,0,1,425.615,321.507Z" transform="translate(-12.19 -7.392)" fill="#5252dd"/>
    <path id="Eyebrow_1" d="M437.286,305.166c10.833,1.413,20.718,6.123,30.608,10.362a110.967,110.967,0,0,0,21.66,4.71,101.91,101.91,0,0,0,16.955,0,91.724,91.724,0,0,0,29.666-7.536v-9.42a93.672,93.672,0,0,1-40.97,8.007c-6.123-.471-11.774-.942-17.9-2.826-8.007-2.355-15.542-6.123-23.544-8.949a89.427,89.427,0,0,0-37.235-3.779v9.086A86.156,86.156,0,0,1,437.286,305.166Z" transform="translate(-23.861)" fill="#433c70"/>
  </g>
</svg>
